<?xml version="1.0" encoding="utf-8"?>
<!-- Generator: Adobe Illustrator 18.0.0, SVG Export Plug-In . SVG Version: 6.00 Build 0)  -->
<!DOCTYPE svg PUBLIC "-//W3C//DTD SVG 1.1//EN" "http://www.w3.org/Graphics/SVG/1.1/DTD/svg11.dtd">
<svg version="1.1" id="Layer_1" xmlns="http://www.w3.org/2000/svg" xmlns:xlink="http://www.w3.org/1999/xlink" x="0px" y="0px"
	 viewBox="0 0 10 12" style="enable-background:new 0 0 10 12;" xml:space="preserve">
<style type="text/css">
	.st0{fill:#666666;}
</style>
<g>
	<path class="st0" d="M9.9,10.4l-1.8-2c1-1.1,1.3-2.6,1.2-3.6C9.1,2.2,6.8,0.4,4.3,0.6S-0.2,3.1,0,5.7c0.2,2.6,2.5,4.5,5.1,4.2
		c0.7-0.1,1.3-0.3,1.8-0.5l1.8,2C8.7,11.3,10.4,11.9,9.9,10.4z M5,8.4C3.2,8.5,1.7,7.2,1.5,5.5C1.4,3.8,2.7,2.3,4.4,2.1
		C6.1,2,7.6,3.2,7.8,5C8,6.7,6.7,8.2,5,8.4z"/>
</g>
</svg>
